<svg data-v-423bf9ae="" xmlns="http://www.w3.org/2000/svg" viewBox="0 0 630 90" class="iconLeft"><!----><!----><!----><g data-v-423bf9ae="" id="95ab632e-c21c-43fa-b253-2c41cee86cc7" fill="#2e3034" transform="matrix(5.808325309113267,0,0,5.808325309113267,105.1210041593148,1.001934791248729)"><path d="M2.89 12.67L0.84 12.67L0.84 2.42L2.89 2.42L2.89 6.52L7.67 6.52L7.67 2.41L9.72 2.41L9.72 12.67L7.67 12.67L7.67 8.44L2.89 8.44L2.89 12.67ZM13.69 12.67L11.78 12.67L11.78 5.83L13.69 5.83L13.69 12.67ZM11.71 4.20L11.71 4.20L11.71 4.20Q11.71 4.61 11.98 4.88L11.98 4.88L11.98 4.88Q12.26 5.15 12.74 5.15L12.74 5.15L12.74 5.15Q13.21 5.15 13.49 4.88L13.49 4.88L13.49 4.88Q13.76 4.61 13.76 4.20L13.76 4.20L13.76 4.20Q13.76 3.79 13.49 3.51L13.49 3.51L13.49 3.51Q13.21 3.23 12.72 3.23L12.72 3.23L12.72 3.23Q12.26 3.23 11.98 3.51L11.98 3.51L11.98 3.51Q11.71 3.79 11.71 4.20ZM17.12 5.83L17.12 6.59L17.12 6.59Q17.86 5.84 18.91 5.84L18.91 5.84L18.91 5.84Q19.24 5.84 19.54 5.89L19.54 5.89L19.24 7.78L19.24 7.78Q18.91 7.48 18.29 7.46L18.29 7.46L18.29 7.46Q17.59 7.51 17.12 8.47L17.12 8.47L17.12 12.67L15.21 12.67L15.21 6.04L17.12 5.83ZM23.89 12.74L23.89 12.74Q22.40 12.74 21.40 11.74L21.40 11.74L21.40 11.74Q20.41 10.74 20.41 9.26L20.41 9.26L20.41 9.26Q20.41 7.77 21.40 6.77L21.40 6.77L21.40 6.77Q22.40 5.77 23.89 5.77L23.89 5.77L23.89 5.77Q25.38 5.77 26.38 6.77L26.38 6.77L26.38 6.77Q27.38 7.77 27.38 9.26L27.38 9.26L27.38 9.26Q27.38 10.75 26.38 11.74L26.38 11.74L26.38 11.74Q25.38 12.74 23.89 12.74L23.89 12.74ZM23.88 11.09L23.88 11.09L23.88 11.09Q24.66 11.09 25.15 10.56L25.15 10.56L25.15 10.56Q25.63 10.04 25.63 9.26L25.63 9.26L25.63 9.26Q25.63 8.48 25.15 7.96L25.15 7.96L25.15 7.96Q24.66 7.43 23.88 7.43L23.88 7.43L23.88 7.43Q23.11 7.43 22.62 7.96L22.62 7.96L22.62 7.96Q22.13 8.48 22.13 9.26L22.13 9.26L22.13 9.26Q22.13 10.04 22.62 10.56L22.62 10.56L22.62 10.56Q23.11 11.09 23.88 11.09ZM30.56 8.30L30.56 8.30L30.56 12.67L28.65 12.67L28.65 6.04L30.56 5.83L30.56 6.44L30.56 6.44Q31.21 5.84 32.20 5.84L32.20 5.84L32.20 5.84Q33.50 5.84 34.19 6.62L34.19 6.62L34.19 6.62Q34.94 5.84 36.44 5.84L36.44 5.84L36.44 5.84Q37.74 5.84 38.42 6.62L38.42 6.62L38.42 6.62Q39.11 7.41 39.11 8.44L39.11 8.44L39.11 12.67L37.19 12.67L37.19 8.91L37.19 8.91Q37.19 8.23 36.89 7.85L36.89 7.85L36.89 7.85Q36.58 7.48 35.89 7.46L35.89 7.46L35.89 7.46Q35.32 7.50 34.90 8.21L34.90 8.21L34.90 8.21Q34.87 8.42 34.87 8.64L34.87 8.64L34.87 12.67L32.96 12.67L32.96 8.91L32.96 8.91Q32.96 8.23 32.65 7.85L32.65 7.85L32.65 7.85Q32.34 7.48 31.65 7.46L31.65 7.46L31.65 7.46Q31.02 7.50 30.56 8.30ZM42.71 12.67L40.80 12.67L40.80 5.83L42.71 5.83L42.71 12.67ZM40.73 4.20L40.73 4.20L40.73 4.20Q40.73 4.61 41.00 4.88L41.00 4.88L41.00 4.88Q41.28 5.15 41.75 5.15L41.75 5.15L41.75 5.15Q42.23 5.15 42.51 4.88L42.51 4.88L42.51 4.88Q42.78 4.61 42.78 4.20L42.78 4.20L42.78 4.20Q42.78 3.79 42.51 3.51L42.51 3.51L42.51 3.51Q42.23 3.23 41.74 3.23L41.74 3.23L41.74 3.23Q41.28 3.23 41.00 3.51L41.00 3.51L41.00 3.51Q40.73 3.79 40.73 4.20ZM55.56 5.15L57.61 12.67L59.66 12.67L62.39 2.42L60.20 2.42L58.43 9.39L56.65 2.42L54.53 2.42L52.68 9.39L50.90 2.42L48.71 2.42L51.45 12.67L53.50 12.67L55.56 5.15ZM66.84 12.74L66.84 12.74Q65.35 12.74 64.35 11.74L64.35 11.74L64.35 11.74Q63.36 10.74 63.36 9.26L63.36 9.26L63.36 9.26Q63.36 7.77 64.35 6.77L64.35 6.77L64.35 6.77Q65.35 5.77 66.84 5.77L66.84 5.77L66.84 5.77Q68.33 5.77 69.33 6.77L69.33 6.77L69.33 6.77Q70.33 7.77 70.33 9.26L70.33 9.26L70.33 9.26Q70.33 10.75 69.33 11.74L69.33 11.74L69.33 11.74Q68.33 12.74 66.84 12.74L66.84 12.74ZM66.83 11.09L66.83 11.09L66.83 11.09Q67.61 11.09 68.10 10.56L68.10 10.56L68.10 10.56Q68.58 10.04 68.58 9.26L68.58 9.26L68.58 9.26Q68.58 8.48 68.10 7.96L68.10 7.96L68.10 7.96Q67.61 7.43 66.83 7.43L66.83 7.43L66.83 7.43Q66.06 7.43 65.57 7.96L65.57 7.96L65.57 7.96Q65.08 8.48 65.08 9.26L65.08 9.26L65.08 9.26Q65.08 10.04 65.57 10.56L65.57 10.56L65.57 10.56Q66.06 11.09 66.83 11.09ZM73.39 5.83L73.39 6.59L73.39 6.59Q74.12 5.84 75.17 5.84L75.17 5.84L75.17 5.84Q75.51 5.84 75.81 5.89L75.81 5.89L75.51 7.78L75.51 7.78Q75.17 7.48 74.55 7.46L74.55 7.46L74.55 7.46Q73.86 7.51 73.39 8.47L73.39 8.47L73.39 12.67L71.48 12.67L71.48 6.04L73.39 5.83ZM77.25 12.67L77.25 2.42L79.30 2.42L79.30 8.22L81.26 5.84L83.56 5.84L81.01 8.91L84.25 12.67L81.58 12.67L79.30 9.95L79.30 12.67L77.25 12.67ZM87.64 5.80L87.64 5.80Q88.60 5.80 89.13 6.03L89.13 6.03L89.13 6.03Q89.67 6.26 90.13 6.72L90.13 6.72L89.07 7.92L89.07 7.92Q88.60 7.37 87.90 7.37L87.90 7.37L87.90 7.37Q87.21 7.37 86.98 7.63L86.98 7.63L86.98 7.63Q86.75 7.88 86.98 8.09L86.98 8.09L86.98 8.09Q87.21 8.30 87.90 8.44L87.90 8.44L87.90 8.44Q88.92 8.53 89.57 9.02L89.57 9.02L89.57 9.02Q90.22 9.50 90.22 10.71L90.22 10.71L90.22 10.71Q90.22 11.68 89.46 12.21L89.46 12.21L89.46 12.21Q88.69 12.74 87.67 12.74L87.67 12.74L87.67 12.74Q86.70 12.74 86.05 12.47L86.05 12.47L86.05 12.47Q85.41 12.19 84.94 11.72L84.94 11.72L86.00 10.53L86.00 10.53Q86.47 11.08 87.45 11.17L87.45 11.17L87.45 11.17Q88.23 11.17 88.46 10.91L88.46 10.91L88.46 10.91Q88.69 10.66 88.53 10.40L88.53 10.40L88.53 10.40Q88.37 10.14 87.45 10.06L87.45 10.06L87.45 10.06Q86.61 9.96 85.92 9.54L85.92 9.54L85.92 9.54Q85.22 9.13 85.22 7.97L85.22 7.97L85.22 7.97Q85.22 6.91 86.01 6.35L86.01 6.35L86.01 6.35Q86.80 5.80 87.64 5.80L87.64 5.80Z"></path></g><!----><g data-v-423bf9ae="" id="383746a3-0f3b-4753-b4e1-323cc8cf7e6d" transform="matrix(2.8125,0,0,2.8125,0,0)" stroke="none" fill="#488eff"><path d="M9.382 8.675h13.943v13.943L32 31.293V0H.707zM22.618 23.325H8.675V9.382L0 .707V32h31.293z"></path></g><!----></svg>